PathFileType	4	(X/Y/Z)	70_2_20_p1_0-254_filt_butterworth.trc
DataRate	CameraRate	NumFrames	NumMarkers	Units	OrigDataRate	OrigDataStartFrame	OrigNumFrames
48.0	48.0	5	27	m	48.0	31	254
Frame#	Time	RHip			RKnee			RAnkle			RBigToe			RSmallToe			RHeel			LHip			LKnee			LAnkle			LBigToe			LSmallToe			LHeel			Neck			Head			Nose			RShoulder			RElbow			RWrist			RThumb			RIndex			RPinky			LShoulder			LElbow			LWrist			LThumb			LIndex			LPinky			
		X1	Y1	Z1	X2	Y2	Z2	X3	Y3	Z3	X4	Y4	Z4	X5	Y5	Z5	X6	Y6	Z6	X7	Y7	Z7	X8	Y8	Z8	X9	Y9	Z9	X10	Y10	Z10	X11	Y11	Z11	X12	Y12	Z12	X13	Y13	Z13	X14	Y14	Z14	X15	Y15	Z15	X16	Y16	Z16	X17	Y17	Z17	X18	Y18	Z18	X19	Y19	Z19	X20	Y20	Z20	X21	Y21	Z21	X22	Y22	Z22	X23	Y23	Z23	X24	Y24	Z24	X25	Y25	Z25	X26	Y26	Z26	X27	Y27	Z27	
31	0.6458333333333334	0.3720767891538844	0.5169431005463009	0.11591766994136382	0.3675396935270267	0.6759929499411376	0.5111007022746704	0.3729309304950555	0.7963130320819398	0.9331733669551104	0.3286759202238123	0.6466326823508396	1.0057110971879017	0.39260099363735745	0.6235912703476625	0.9849210545467962	0.3719418282243619	0.898597411264269	0.9907668255861093	0.12773057113244274	0.6207484954248214	0.12763933771815053	0.14800274010346257	0.7234341541366757	0.5325535625764418	0.1683101187244626	0.8203953702195379	0.9349503566238296	0.16062299879134334	0.6278727192740325	0.975281786670908	0.108438335870609	0.706026181838642	0.9776115241450558	0.19118343307146451	0.8461730095269628	0.9747241579787631	0.23288313183693152	0.40039351991838	-0.4573016137221588	0.20616859852267452	0.2957435326193041	-0.7005831496704347	0.1960256357928429	0.27818052111487673	-0.5441530173769494	0.38821963674844273	0.37628059356849075	-0.363136245738074	0.422259129615606	0.36290397336134905	-0.08771413597958992	0.2789917874569812	0.3307304569592675	0.12650896530952443	0.1920759311292444	0.3652384763191949	0.21503354888458198	0.19058739951018114	0.38447592926621604	0.22824232188567684	0.2061458281486238	0.40262358151412375	0.2250589830745912	0.05927408498254601	0.4419943778804726	-0.36382964994865785	0.02858286119354069	0.47858174194174063	-0.10148975319992237	0.11258199791680312	0.3973167227392147	0.11967894755622246	0.17567006843190983	0.3172061725188622	0.1600301069080351	0.1795098024536689	0.33300087387434707	0.21272315239304754	0.17870705258248892	0.36600073117783877	0.2289557235011602
32	0.6666666666666666	0.3711649090218455	0.5230517655778505	0.11726661504252239	0.3670160548924416	0.6738447955404994	0.5100800435013574	0.3719921419208564	0.8035264452430954	0.9339909876947708	0.3294207106349632	0.6399630019381901	1.0041523339296028	0.3926137020464875	0.6231865490241504	0.9848620965899538	0.3712971649192065	0.904015331375824	0.9905140697074256	0.129559242208109	0.6248993050506452	0.12615743878314334	0.14809591217451265	0.7227401427728504	0.5341831066461721	0.1680112866419704	0.8205062108831739	0.9379708796617049	0.16065157568168817	0.6278849745626697	0.9753016259513736	0.10852558610830743	0.7061243353513194	0.9776544638557125	0.19121389317493326	0.8462941680485645	0.9747398331875146	0.23287370637242433	0.40037616140664467	-0.4574928083737882	0.20435350745668507	0.29124270503043426	-0.6994953212602752	0.1970506824549297	0.2729719014511379	-0.5444011654836238	0.38762852251000546	0.3801541099378638	-0.3634283136447122	0.4237437987231635	0.3660847522071016	-0.0879520192805861	0.29273717361131624	0.3513409285113475	0.1274282060191549	0.20609623652902526	0.3826526400264979	0.22219050296233483	0.20268628812461637	0.40507811981149555	0.23255277892588838	0.219599153827002	0.40575681397527225	0.22640545118670452	0.05924072669502249	0.44195670513793595	-0.3639074602128571	0.02904819260175055	0.47916736477440636	-0.10142085312547909	0.1105343424001604	0.40273819832103136	0.12169601040669761	0.1687341742786694	0.3225851686025766	0.16511880188912728	0.17188704988499842	0.3373282928025342	0.21563363605558122	0.17400690271887012	0.3633450365108645	0.2309936850994384
33	0.6875	0.37002168637075367	0.5287033382200206	0.11775973146429664	0.3672478985058287	0.6679882822242095	0.5100938862480745	0.37127673777308745	0.8082226246674538	0.9367038468889968	0.3298968742269254	0.6354896698120384	1.0038566402430178	0.3925900693687862	0.623269322069774	0.9859112366111149	0.37039433729277316	0.9117038492157695	0.9914707612196594	0.13061347224952316	0.6244317440795453	0.12453319486848959	0.1482351874140842	0.7221212193653489	0.5341886209001709	0.16777424146111117	0.8205553029633114	0.9395349331330852	0.16063224039423027	0.6278730030831928	0.9752966266721649	0.10861827346732383	0.7058304258697248	0.9776970636429061	0.191148754545164	0.8463479444211799	0.9748011787809396	0.23287123300452506	0.4004109671656373	-0.45739653943346187	0.20310542105165083	0.2881802003555379	-0.699038054586423	0.19774134617019218	0.2695291095689685	-0.5441102534621209	0.38770051177298226	0.38556225819279133	-0.3634692734847484	0.42687654361295246	0.3727758043926248	-0.08751923592242485	0.3090259559886639	0.3763061853321409	0.12849897548604033	0.22096185502547144	0.38902376217928647	0.2245182640059703	0.21911280489345586	0.41869752719341796	0.23529906367647713	0.23918264275652137	0.40247720051990377	0.22742499525755894	0.05920336150967556	0.4419719173539067	-0.36394405124341594	0.029038689913667766	0.4785622133271834	-0.10163817830397902	0.10806387603946413	0.4058363411144088	0.12273641282130951	0.1616014298387158	0.3281109650252252	0.17206926241028075	0.16248834479236568	0.3370302024794656	0.21658129216759342	0.1664597266256112	0.3592044565715132	0.2335855729719697
34	0.7083333333333334	0.36934136979527465	0.5376182113990227	0.1184905800618785	0.36834003561850737	0.6598178852640616	0.510246908135357	0.3709890295728272	0.8093919044786959	0.9406671637515887	0.3297723372269958	0.6360210706852977	1.00493048900751	0.3925388492421708	0.6234746526217302	0.9877105750856114	0.36979445106854447	0.9167955725751776	0.9942083280300572	0.13088366573554294	0.622348732000271	0.12446253674039524	0.14836648618524778	0.72177066148694	0.5331048230039831	0.16769234927149518	0.8205231631087051	0.9397333283163993	0.16061763651391991	0.6277558595371058	0.9752307833759346	0.10870931755712349	0.7052745941181028	0.9776782818597678	0.1910189359370913	0.8463565004206675	0.9749193837621495	0.23287972278458846	0.40043016239030027	-0.4573366293692837	0.20283910455925017	0.28749693342351523	-0.6998561680171602	0.19787786184061257	0.2688227127901716	-0.5438568933977276	0.3893991890263332	0.38878583265230227	-0.3634838418937234	0.4312410553548849	0.38183341583097385	-0.08570315574964649	0.32231333564228537	0.392374652157472	0.12895514798593966	0.235476089082648	0.39089126108923955	0.22441706125325833	0.23816435158965854	0.41464331588714654	0.23410059283480694	0.2607150588312332	0.39730159921784897	0.22781418888712288	0.059136775480219506	0.4420174609130472	-0.3636364767991918	0.028564800999225544	0.4795791870376724	-0.10146258213785775	0.10643113841597683	0.40751348743241467	0.12345984572361329	0.15512372148768722	0.3379809839978507	0.18004871367481176	0.15245876354739404	0.33796766315733445	0.21883597877093705	0.15636742652482893	0.3603322794247568	0.2377357576557401
35	0.7291666666666666	0.36937333691901675	0.5523102279169588	0.12056331192913643	0.3695150990284838	0.6543731087002486	0.5104986906675038	0.3709335947407608	0.8094349446463135	0.943436387689415	0.3286114055481037	0.641522904725538	1.0070592081584058	0.3924298014111188	0.6235265074175997	0.9890393063027625	0.36966530350186144	0.9177568324505694	0.9967499422601402	0.13119947422753045	0.622446058529269	0.12767041333744397	0.14849666252392674	0.721559160790557	0.532276699188043	0.1676726888579182	0.8204414004858528	0.9395630664141252	0.1606372991005759	0.6275348968709573	0.9751290185816395	0.1087574194828179	0.7049358587541241	0.977554696063992	0.19093530989650756	0.8465430328815591	0.9750514465992908	0.2328919199000705	0.40042027798303753	-0.45732278602819354	0.20298217215526104	0.28770495881629066	-0.7012786631302316	0.1977929091550339	0.26917085709776345	-0.5437839800545983	0.391713558660222	0.3890584862024769	-0.3632994063752913	0.4373257133225605	0.3935018989693925	-0.08323897874975861	0.33154829538043634	0.39621535107976535	0.12828341611133276	0.24885809415679555	0.39236339377665125	0.2235437714532748	0.2558337961799689	0.39575893499164316	0.2300651134105255	0.2789315789206142	0.39538734058122693	0.22806768591291832	0.05901490362466758	0.44213566583351943	-0.36256371831222667	0.027369013740204572	0.48389889845064654	-0.10043302782072183	0.10532293578544619	0.4112001822480427	0.12583387820972852	0.1500165972947764	0.3503254298698693	0.1880683630324304	0.14384169294158067	0.34281068895444644	0.223581085140948	0.14358044180734258	0.37362280219043126	0.24439574082357146
